# xmcd
#
# Track frame offsets: 
#        150
#        11310
#        24997
#        42805
#        57272
#        73155
#        96140
#        108512
#        126337
#        141577
#        154355
#        167590
#
# Disc length: 2488 seconds
#
# Revision: 2
# Processed by: cddbd v1.5.2PL0 Copyright (c) Steve Scherf et al.
# Submitted via: ExactAudioCopy v0.95b4
#
DISCID=a209b60c
DTITLE=Le Clou - Oh! La La!
DYEAR=1991
DGENRE=
TTITLE0=Oh! La La!
TTITLE1=Belle Madeleine
TTITLE2=Vieux Os
TTITLE3=Le gros lot
TTITLE4=Le printemps cadien
TTITLE5=Les cailloux de Cayenne
TTITLE6=Grand Bayou
TTITLE7=Blues du paradis
TTITLE8=Café du monde
TTITLE9=Métropole
TTITLE10=Mamou Two Step
TTITLE11=Les pirates
EXTD=
EXTT0=
EXTT1=
EXTT2=
EXTT3=
EXTT4=
EXTT5=
EXTT6=
EXTT7=
EXTT8=
EXTT9=
EXTT10=
EXTT11=
PLAYORDER=
